<!-- social-icons.svg -->
<svg xmlns="http://www.w3.org/2000/svg" style="display: none;">
  <!-- Facebook Icon -->
  <symbol id="facebook" viewBox="0 0 24 24">
    <path d="M9 8H7V6h2V4c0-1.1.9-2 2-2h2v2H9c-.6 0-1 .4-1 1v2z"/>
  </symbol>

  <!-- Twitter Icon -->
  <symbol id="twitter" viewBox="0 0 24 24">
    <path d="M21 6c-.8.4-1.7.7-2.6.8C18.4 6.4 17.8 6 17 6c-1.6 0-2.8 1.2-2.8 2.8v.2c-2.3-.1-4.5-1.2-5.9-2.8-.2.3-.3.6-.3.9 0 1.3.7 2.4 1.7 3-.6 0-1.2-.2-1.7-.5v.1c0 1.4 1 2.7 2.4 3-.3.1-.7.1-1.1.1-.3 0-.7 0-1-.1.7 2.2 2.7 3.8 5 3.8 6 0 9.3-5 9.3-9.3 0-.1 0-.2 0-.3.6-.4 1.1-.9 1.6-1.5z"/>
  </symbol>

  <!-- LinkedIn Icon -->
  <symbol id="linkedin" viewBox="0 0 24 24">
    <path d="M4.98 3.5c0 1.4-1.13 2.5-2.5 2.5S0 4.9 0 3.5 1.13 1 2.5 1 4.98 2.1 4.98 3.5zM1.5 5H4.5v14H1.5V5zm12 0h-3v2h-2v-2H8V5h5zm0 4v14h-2V9h2z"/>
  </symbol>

  <!-- Instagram Icon -->
  <symbol id="instagram" viewBox="0 0 24 24">
    <path d="M12 5.5c-3.6 0-6.5 2.9-6.5 6.5s2.9 6.5 6.5 6.5 6.5-2.9 6.5-6.5S15.6 5.5 12 5.5zm0 10.8c-2.4 0-4.3-1.9-4.3-4.3 0-2.4 1.9-4.3 4.3-4.3 2.4 0 4.3 1.9 4.3 4.3 0 2.4-1.9 4.3-4.3 4.3zm2.5-7.3c-.6 0-1.1-.5-1.1-1.1 0-.6.5-1.1 1.1-1.1.6 0 1.1.5 1.1 1.1 0 .6-.5 1.1-1.1 1.1z"/>
  </symbol>
</svg>
